{"title":"Wide.Sargasso.Sea.2006.DVDRip.AC3.X264-BARC0DE","uid":5707331,"size":1168832959,"categoryP":"video","categoryS":"movies","magnet":"?xt=urn:btih:04275375c3ea259201a5c04346f01978399404ad&amp;dn=Wide.Sargasso.Sea.2006.DVDRip.AC3.X264-BARC0DE&amp;tr=udp%3A%2F%2Ftracker.openbittorrent.com%3A80&amp;tr=udp%3A%2F%2Fopen.demonii.com%3A1337&amp;tr=udp%3A%2F%2Ftracker.coppersurfer.tk%3A6969&amp;tr=udp%3A%2F%2Fexodus.desync.com%3A6969","seeders":6,"leechers":2,"uploader":"TvTeam","files":4,"time":1279746808,"description":". \n  &lt;a href=&quot;\nhttp://www.torrentday.com/&quot; rel=&quot;nofollow&quot; target=&quot;_NEW&quot;&gt;\nhttp://www.torrentday.com/&lt;/a&gt;        :     The Hottest Private Tracker On The Net!!!\n\n\n               www . TorrentDay . Com \n(((((((((((((= Enjoy No RAR releases =))))))))))))))))))))\n\n\n...................................NFO:....................................\n\n.*******************************************************************************\n                     Wide.Sargasso.Sea.2006.DVDRip.AC3.X264-BARC0DE\n*******************************************************************************\n\n-------------------------------------------------------------------------------\n                              General Information\n-------------------------------------------------------------------------------\nType.................: Movie\nName.................: Wide Sargasso Sea\nMovie Information....: http://www.imdb.com/title/tt0828462/\nGenre................: Drama | Romance\n-------------------------------------------------------------------------------\n                                    PLOT\n-------------------------------------------------------------------------------\nIn this prequel to Jane Eyre, Edward Rochester finds himself in Jamaica looking \nto make his fortune. As the second son, the expectation is that his brother will \ninherit the family estate and so his future must lie elsewhere. He soon meets \nAntoinette Cosway and is offered a substantial dowry to marry her. Only after \nthe wedding does he learn of her family history, including the madness that \nafflicted her mother. Their relationship in a constant downward spiral, he decides \nthat they should return to England where he keeps her locked away in her room. \n\n-------------------------------------------------------------------------------\n                                    CAST\n-------------------------------------------------------------------------------\nRafe Spall\t... \tEdward Rochester\nRebecca Hall\t... \tAntoinette Cosway\nNina Sosanya\t... \tChristophine\nVictoria Hamilton\t... \tAunt Cora\nFraser Ayres\t... \tDaniel\nLorraine Burroughs\t... \tAmelie\nAlex Robertson\t... \tRichard Mason\nKaren Meagher\t... \tGrace Poole\n\n-------------------------------------------------------------------------------\n                                    MEDiA iNFO\n-------------------------------------------------------------------------------\n\nGeneral\nComplete name                    : Wide.Sargasso.Sea.2006.DVDRip.AC3.X264-BARC0DE.mkv\nFormat                           : Matroska\nFile size                        : 1.09 GiB\nDuration                         : 1h 23mn\nOverall bit rate                 : 1 859 Kbps\n\nVideo\nID                               : 1\nFormat                           : AVC\nFormat/Info                      : Advanced Video Codec\nFormat profile                   : &lt;a class=&quot;__cf_email__&quot; href=&quot;/cdn-cgi/l/email-protection&quot; data-cfemail=&quot;e4ac8d838ca4a8d7cad4&quot;&gt;[email&amp;#160;protected]&lt;/a&gt;&lt;script cf-hash='f9e31' type=&quot;text/javascript&quot;&gt;\n/* &lt;![CDATA[ */!function(){try{var t=&quot;currentScript&quot;in document?document.currentScript:function(){for(var t=document.getElementsByTagName(&quot;script&quot;),e=t.length;e--;)if(t[e].getAttribute(&quot;cf-hash&quot;))return t[e]}();if(t&amp;&amp;t.previousSibling){var e,r,n,i,c=t.previousSibling,a=c.getAttribute(&quot;data-cfemail&quot;);if(a){for(e=&quot;&quot;,r=parseInt(a.substr(0,2),16),n=2;a.length-n;n+=2)i=parseInt(a.substr(n,2),16)^r,e+=String.fromCharCode(i);e=document.createTextNode(e),c.parentNode.replaceChild(e,c)}}}catch(u){}}();/* ]]&gt; */&lt;/script&gt;\nFormat settings, CABAC           : Yes\nFormat settings, ReFrames        : 3 frames\nMuxing mode                      : Container profile=&lt;a class=&quot;__cf_email__&quot; href=&quot;/cdn-cgi/l/email-protection&quot; data-cfemail=&quot;86d3e8ede8e9f1e8c6b5a8b6&quot;&gt;[email&amp;#160;protected]&lt;/a&gt;&lt;script cf-hash='f9e31' type=&quot;text/javascript&quot;&gt;\n/* &lt;![CDATA[ */!function(){try{var t=&quot;currentScript&quot;in document?document.currentScript:function(){for(var t=document.getElementsByTagName(&quot;script&quot;),e=t.length;e--;)if(t[e].getAttribute(&quot;cf-hash&quot;))return t[e]}();if(t&amp;&amp;t.previousSibling){var e,r,n,i,c=t.previousSibling,a=c.getAttribute(&quot;data-cfemail&quot;);if(a){for(e=&quot;&quot;,r=parseInt(a.substr(0,2),16),n=2;a.length-n;n+=2)i=parseInt(a.substr(n,2),16)^r,e+=String.fromCharCode(i);e=document.createTextNode(e),c.parentNode.replaceChild(e,c)}}}catch(u){}}();/* ]]&gt; */&lt;/script&gt;\nCodec ID                         : V_MPEG4/ISO/AVC\nDuration                         : 1h 23mn\nBit rate                         : 1 641 Kbps\nWidth                            : 704 pixels\nHeight                           : 400 pixels\nDisplay aspect ratio             : 16:9\nFrame rate                       : 25.000 fps\nColor space                      : YUV\nChroma subsampling               : 4:2:0\nBit depth                        : 8 bits\nScan type                        : Progressive\nBits/(Pixel*Frame)               : 0.233\nStream size                      : 958 MiB (86%)\nWriting library                  : x264 core 79\n\nAudio\nID                               : 2\nFormat                           : AC-3\nFormat/Info                      : Audio Coding 3\nMode extension                   : CM (complete main)\nCodec ID                         : A_AC3\nDuration                         : 1h 23mn\nBit rate mode                    : Constant\nBit rate                         : 224 Kbps\nChannel(s)                       : 2 channels\nChannel positions                : Front: L R\nSampling rate                    : 48.0 KHz\nStream size                      : 134 MiB (12%)\nLanguage                         : English","torrent":{"xt":"urn:btih:04275375c3ea259201a5c04346f01978399404ad","amp;dn":"Wide.Sargasso.Sea.2006.DVDRip.AC3.X264-BARC0DE","amp;tr":["udp%3A%2F%2Ftracker.openbittorrent.com%3A80","udp%3A%2F%2Fopen.demonii.com%3A1337","udp%3A%2F%2Ftracker.coppersurfer.tk%3A6969","udp%3A%2F%2Fexodus.desync.com%3A6969"],"infoHash":"04275375c3ea259201a5c04346f01978399404ad","infoHashBuffer":{"type":"Buffer","data":[4,39,83,117,195,234,37,146,1,165,192,67,70,240,25,120,57,148,4,173]},"announce":[],"urlList":[]}}